<svg width="50" height="50" viewBox="0 0 59 29" fill="none" xmlns="http://www.w3.org/2000/svg">
<path d="M9.75968 11H5.99618V0.818182H9.75471C10.7921 0.818182 11.6853 1.02202 12.4344 1.42969C13.1868 1.83404 13.7668 2.41738 14.1744 3.17969C14.5821 3.93868 14.786 4.84683 14.786 5.90412C14.786 6.96473 14.5821 7.87618 14.1744 8.63849C13.7701 9.4008 13.1917 9.9858 12.4394 10.3935C11.687 10.7978 10.7938 11 9.75968 11ZM8.45712 8.90199H9.66522C10.2353 8.90199 10.7175 8.80587 11.1119 8.61364C11.5097 8.41809 11.8096 8.10156 12.0118 7.66406C12.2173 7.22325 12.32 6.6366 12.32 5.90412C12.32 5.17164 12.2173 4.5883 12.0118 4.15412C11.8063 3.71662 11.503 3.40175 11.102 3.20952C10.7043 3.01397 10.2137 2.91619 9.63042 2.91619H8.45712V8.90199ZM19.7923 11.1442C18.9936 11.1442 18.3042 10.9867 17.7242 10.6719C17.1475 10.3537 16.7033 9.90128 16.3918 9.31463C16.0835 8.72467 15.9294 8.02367 15.9294 7.21165C15.9294 6.42282 16.0852 5.73343 16.3968 5.14347C16.7083 4.55019 17.1475 4.08949 17.7142 3.76136C18.281 3.42992 18.9488 3.2642 19.7178 3.2642C20.2613 3.2642 20.7585 3.34872 21.2093 3.51776C21.66 3.68679 22.0494 3.93703 22.3776 4.26847C22.7057 4.59991 22.9609 5.00923 23.1432 5.49645C23.3255 5.98035 23.4166 6.53551 23.4166 7.16193V7.76847H16.7796V6.35653H21.1546C21.1512 6.09801 21.0899 5.86766 20.9706 5.66548C20.8513 5.4633 20.6872 5.30587 20.4784 5.19318C20.2729 5.07718 20.036 5.01918 19.7675 5.01918C19.4957 5.01918 19.2521 5.08049 19.0367 5.20312C18.8212 5.32244 18.6505 5.48651 18.5246 5.69531C18.3986 5.9008 18.3324 6.13447 18.3257 6.39631V7.8331C18.3257 8.14465 18.387 8.41809 18.5097 8.65341C18.6323 8.88542 18.8063 9.06605 19.0317 9.19531C19.2571 9.32457 19.5255 9.3892 19.8371 9.3892C20.0525 9.3892 20.2481 9.35937 20.4237 9.29972C20.5994 9.24006 20.7502 9.15223 20.8762 9.03622C21.0021 8.92022 21.0966 8.7777 21.1595 8.60866L23.3918 8.6733C23.299 9.17377 23.0951 9.60961 22.7803 9.98082C22.4687 10.3487 22.0594 10.6354 21.5523 10.8409C21.0452 11.0431 20.4585 11.1442 19.7923 11.1442ZM31.3252 5.69531L29.093 5.75497C29.0698 5.59588 29.0068 5.45502 28.904 5.33239C28.8013 5.20644 28.6671 5.10866 28.5013 5.03906C28.3389 4.96615 28.15 4.92969 27.9346 4.92969C27.6528 4.92969 27.4126 4.98603 27.2137 5.09872C27.0181 5.21141 26.922 5.36387 26.9253 5.55611C26.922 5.70526 26.9817 5.83452 27.1043 5.94389C27.2303 6.05327 27.454 6.1411 27.7755 6.20739L29.2471 6.4858C30.0094 6.63163 30.5761 6.87358 30.9474 7.21165C31.3219 7.54972 31.5108 7.99716 31.5141 8.55398C31.5108 9.07765 31.355 9.53338 31.0468 9.92116C30.7419 10.3089 30.3242 10.6106 29.7939 10.826C29.2636 11.0381 28.6571 11.1442 27.9743 11.1442C26.8839 11.1442 26.0238 10.9205 25.3941 10.473C24.7677 10.0223 24.4097 9.41903 24.3202 8.66335L26.7215 8.60369C26.7745 8.8821 26.9121 9.09422 27.1341 9.24006C27.3562 9.38589 27.6396 9.45881 27.9843 9.45881C28.2958 9.45881 28.5494 9.4008 28.7449 9.2848C28.9405 9.1688 29.0399 9.01468 29.0432 8.82244C29.0399 8.65009 28.9637 8.51255 28.8145 8.4098C28.6654 8.30374 28.4317 8.22088 28.1135 8.16122L26.7812 7.90767C26.0155 7.76847 25.4455 7.5116 25.0709 7.13707C24.6964 6.75923 24.5108 6.27865 24.5141 5.69531C24.5108 5.1849 24.6467 4.74905 24.9218 4.38778C25.1969 4.0232 25.588 3.74479 26.0951 3.55256C26.6022 3.36032 27.2004 3.2642 27.8898 3.2642C28.9239 3.2642 29.7393 3.4813 30.3358 3.91548C30.9324 4.34635 31.2622 4.93963 31.3252 5.69531ZM32.711 11V3.36364H35.1421V11H32.711ZM33.9291 2.47372C33.5877 2.47372 33.2944 2.36103 33.0491 2.13565C32.8038 1.90696 32.6812 1.63187 32.6812 1.31037C32.6812 0.992187 32.8038 0.720407 33.0491 0.495028C33.2944 0.266335 33.5877 0.151988 33.9291 0.151988C34.2738 0.151988 34.5671 0.266335 34.809 0.495028C35.0543 0.720407 35.1769 0.992187 35.1769 1.31037C35.1769 1.63187 35.0543 1.90696 34.809 2.13565C34.5671 2.36103 34.2738 2.47372 33.9291 2.47372ZM40.2492 14.0227C39.5233 14.0227 38.9019 13.9216 38.3849 13.7195C37.8678 13.5173 37.4618 13.2405 37.1668 12.8892C36.8718 12.5379 36.6945 12.1402 36.6349 11.696L38.9367 11.5668C38.9798 11.7225 39.0593 11.8584 39.1753 11.9744C39.2947 12.0904 39.4488 12.1799 39.6377 12.2429C39.8299 12.3059 40.0553 12.3374 40.3138 12.3374C40.7215 12.3374 41.0579 12.2379 41.3231 12.0391C41.5915 11.8435 41.7258 11.5005 41.7258 11.0099V9.66761H41.6412C41.5451 9.90294 41.3993 10.1134 41.2037 10.299C41.0082 10.4846 40.7646 10.6304 40.4729 10.7365C40.1846 10.8426 39.8531 10.8956 39.4786 10.8956C38.9218 10.8956 38.4114 10.7663 37.9474 10.5078C37.4867 10.246 37.1171 9.84162 36.8387 9.29474C36.5636 8.74455 36.426 8.03693 36.426 7.17188C36.426 6.2803 36.5686 5.54616 36.8536 4.96946C37.1386 4.38944 37.5115 3.96023 37.9722 3.68182C38.4362 3.40341 38.935 3.2642 39.4687 3.2642C39.8697 3.2642 40.2127 3.33381 40.4978 3.47301C40.7861 3.6089 41.0231 3.78456 41.2087 4C41.3943 4.21544 41.5352 4.43916 41.6313 4.67116H41.7009V3.36364H44.1221V11.0298C44.1221 11.6761 43.9597 12.2214 43.6349 12.6655C43.31 13.1096 42.856 13.446 42.2726 13.6747C41.6893 13.9067 41.0148 14.0227 40.2492 14.0227ZM40.3238 9.12571C40.6188 9.12571 40.8707 9.04782 41.0795 8.89205C41.2883 8.73627 41.449 8.51255 41.5617 8.22088C41.6744 7.92921 41.7307 7.57955 41.7307 7.17188C41.7307 6.75758 41.6744 6.40128 41.5617 6.10298C41.4523 5.80137 41.2916 5.56937 41.0795 5.40696C40.8707 5.24455 40.6188 5.16335 40.3238 5.16335C40.0222 5.16335 39.767 5.24621 39.5581 5.41193C39.3493 5.57765 39.1903 5.81132 39.0809 6.11293C38.9748 6.41122 38.9218 6.7642 38.9218 7.17188C38.9218 7.57955 38.9765 7.92921 39.0858 8.22088C39.1952 8.51255 39.3527 8.73627 39.5581 8.89205C39.767 9.04782 40.0222 9.12571 40.3238 9.12571ZM48.1031 6.64489V11H45.672V3.36364H47.9838V4.76562H48.0683C48.2373 4.2983 48.5257 3.93205 48.9333 3.6669C49.341 3.39844 49.8266 3.2642 50.39 3.2642C50.9269 3.2642 51.3926 3.38518 51.787 3.62713C52.1847 3.86577 52.493 4.20052 52.7117 4.63139C52.9338 5.05895 53.0432 5.55942 53.0399 6.13281V11H50.6088V6.61009C50.6121 6.18584 50.5044 5.8544 50.2856 5.61577C50.0702 5.37713 49.7702 5.25781 49.3857 5.25781C49.1305 5.25781 48.9052 5.31416 48.7096 5.42685C48.5174 5.53622 48.3682 5.69366 48.2622 5.89915C48.1594 6.10464 48.1064 6.35322 48.1031 6.64489ZM0.602628 28V17.8182H4.80859C5.5709 17.8182 6.22881 17.9673 6.78232 18.2656C7.33913 18.5606 7.76835 18.9732 8.06996 19.5036C8.37157 20.0305 8.52237 20.6437 8.52237 21.343C8.52237 22.0457 8.36825 22.6605 8.06001 23.1875C7.75509 23.7112 7.31925 24.1172 6.75249 24.4055C6.18572 24.6939 5.5129 24.8381 4.73402 24.8381H2.13885V22.8991H4.27663C4.64785 22.8991 4.95774 22.8345 5.20632 22.7053C5.45822 22.576 5.64879 22.3954 5.77805 22.1634C5.90732 21.928 5.97195 21.6546 5.97195 21.343C5.97195 21.0282 5.90732 20.7564 5.77805 20.5277C5.64879 20.2957 5.45822 20.1167 5.20632 19.9908C4.95443 19.8648 4.64453 19.8018 4.27663 19.8018H3.06357V28H0.602628ZM11.6147 28.1293C11.1275 28.1293 10.695 28.0481 10.3171 27.8857C9.94259 27.7199 9.64595 27.4714 9.4272 27.1399C9.21177 26.8052 9.10405 26.3859 9.10405 25.8821C9.10405 25.4579 9.17862 25.0999 9.32777 24.8082C9.47692 24.5166 9.68241 24.2796 9.94425 24.0973C10.2061 23.915 10.5077 23.7775 10.8491 23.6847C11.1905 23.5885 11.555 23.5239 11.9428 23.4908C12.377 23.451 12.7267 23.4096 12.9918 23.3665C13.257 23.3201 13.4492 23.2554 13.5685 23.1726C13.6912 23.0864 13.7525 22.9654 13.7525 22.8097V22.7848C13.7525 22.5296 13.6647 22.3324 13.489 22.1932C13.3133 22.054 13.0763 21.9844 12.7781 21.9844C12.4566 21.9844 12.198 22.054 12.0025 22.1932C11.8069 22.3324 11.6826 22.5246 11.6296 22.7699L9.38743 22.6903C9.45372 22.2263 9.62441 21.812 9.8995 21.4474C10.1779 21.0795 10.5591 20.7912 11.043 20.5824C11.5302 20.3703 12.1152 20.2642 12.7979 20.2642C13.2852 20.2642 13.7343 20.3222 14.1452 20.4382C14.5562 20.5509 14.9142 20.7166 15.2191 20.9354C15.524 21.1508 15.7594 21.416 15.9251 21.7308C16.0941 22.0457 16.1786 22.4053 16.1786 22.8097V28H13.8917V26.9361H13.832C13.6961 27.1946 13.5221 27.4134 13.31 27.5923C13.1012 27.7713 12.8543 27.9055 12.5692 27.995C12.2875 28.0845 11.9693 28.1293 11.6147 28.1293ZM12.3654 26.5384C12.6272 26.5384 12.8626 26.4853 13.0714 26.3793C13.2835 26.2732 13.4525 26.1274 13.5785 25.9418C13.7044 25.7528 13.7674 25.5341 13.7674 25.2855V24.5597C13.6978 24.5961 13.6133 24.6293 13.5138 24.6591C13.4177 24.6889 13.3117 24.7171 13.1957 24.7436C13.0797 24.7701 12.9603 24.7933 12.8377 24.8132C12.7151 24.8331 12.5974 24.8513 12.4847 24.8679C12.256 24.9044 12.0605 24.9607 11.8981 25.0369C11.739 25.1132 11.6164 25.2126 11.5302 25.3352C11.4473 25.4545 11.4059 25.5971 11.4059 25.7628C11.4059 26.0147 11.4954 26.2069 11.6744 26.3395C11.8567 26.4721 12.087 26.5384 12.3654 26.5384ZM21.9755 20.3636V22.1534H17.158V20.3636H21.9755ZM18.1673 18.5341H20.5984V25.5987C20.5984 25.7479 20.6216 25.8688 20.668 25.9616C20.7177 26.0511 20.7889 26.1158 20.8817 26.1555C20.9746 26.192 21.0856 26.2102 21.2148 26.2102C21.3076 26.2102 21.4054 26.2019 21.5082 26.1854C21.6142 26.1655 21.6938 26.1489 21.7468 26.1357L22.1147 27.8906C21.9987 27.9238 21.8346 27.9652 21.6225 28.0149C21.4137 28.0646 21.1635 28.0961 20.8718 28.1094C20.3017 28.1359 19.8129 28.0696 19.4052 27.9105C19.0008 27.7481 18.6909 27.4962 18.4755 27.1548C18.2634 26.8134 18.1606 26.3842 18.1673 25.8672V18.5341ZM27.5263 20.3636V22.1534H22.7088V20.3636H27.5263ZM23.718 18.5341H26.1491V25.5987C26.1491 25.7479 26.1723 25.8688 26.2188 25.9616C26.2685 26.0511 26.3397 26.1158 26.4325 26.1555C26.5253 26.192 26.6364 26.2102 26.7656 26.2102C26.8584 26.2102 26.9562 26.2019 27.0589 26.1854C27.165 26.1655 27.2446 26.1489 27.2976 26.1357L27.6655 27.8906C27.5495 27.9238 27.3854 27.9652 27.1733 28.0149C26.9645 28.0646 26.7143 28.0961 26.4226 28.1094C25.8525 28.1359 25.3636 28.0696 24.956 27.9105C24.5516 27.7481 24.2417 27.4962 24.0263 27.1548C23.8142 26.8134 23.7114 26.3842 23.718 25.8672V18.5341ZM32.2543 28.1442C31.4555 28.1442 30.7661 27.9867 30.1861 27.6719C29.6094 27.3537 29.1652 26.9013 28.8537 26.3146C28.5455 25.7247 28.3913 25.0237 28.3913 24.2116C28.3913 23.4228 28.5471 22.7334 28.8587 22.1435C29.1702 21.5502 29.6094 21.0895 30.1761 20.7614C30.7429 20.4299 31.4107 20.2642 32.1797 20.2642C32.7232 20.2642 33.2204 20.3487 33.6712 20.5178C34.1219 20.6868 34.5114 20.937 34.8395 21.2685C35.1676 21.5999 35.4228 22.0092 35.6051 22.4964C35.7874 22.9804 35.8786 23.5355 35.8786 24.1619V24.7685H29.2415V23.3565H33.6165C33.6132 23.098 33.5518 22.8677 33.4325 22.6655C33.3132 22.4633 33.1491 22.3059 32.9403 22.1932C32.7348 22.0772 32.4979 22.0192 32.2294 22.0192C31.9576 22.0192 31.714 22.0805 31.4986 22.2031C31.2831 22.3224 31.1125 22.4865 30.9865 22.6953C30.8606 22.9008 30.7943 23.1345 30.7876 23.3963V24.8331C30.7876 25.1446 30.849 25.4181 30.9716 25.6534C31.0942 25.8854 31.2682 26.0661 31.4936 26.1953C31.719 26.3246 31.9875 26.3892 32.299 26.3892C32.5144 26.3892 32.71 26.3594 32.8857 26.2997C33.0613 26.2401 33.2121 26.1522 33.3381 26.0362C33.464 25.9202 33.5585 25.7777 33.6214 25.6087L35.8537 25.6733C35.7609 26.1738 35.5571 26.6096 35.2422 26.9808C34.9306 27.3487 34.5213 27.6354 34.0142 27.8409C33.5071 28.0431 32.9205 28.1442 32.2543 28.1442ZM37.1202 28V20.3636H39.4817V21.7557H39.5613C39.7005 21.2519 39.9275 20.8774 40.2424 20.6321C40.5572 20.3835 40.9235 20.2592 41.3411 20.2592C41.4538 20.2592 41.5698 20.2675 41.6891 20.2841C41.8084 20.2973 41.9194 20.3189 42.0222 20.3487V22.4616C41.9062 22.4219 41.7537 22.3904 41.5648 22.3672C41.3792 22.344 41.2135 22.3324 41.0676 22.3324C40.7793 22.3324 40.5191 22.397 40.2871 22.5263C40.0584 22.6522 39.8778 22.8295 39.7452 23.0582C39.6159 23.2836 39.5513 23.5488 39.5513 23.8537V28H37.1202ZM45.4439 23.6449V28H43.0128V20.3636H45.3246V21.7656H45.4091C45.5781 21.2983 45.8665 20.9321 46.2741 20.6669C46.6818 20.3984 47.1674 20.2642 47.7308 20.2642C48.2678 20.2642 48.7334 20.3852 49.1278 20.6271C49.5256 20.8658 49.8338 21.2005 50.0526 21.6314C50.2746 22.0589 50.384 22.5594 50.3807 23.1328V28H47.9496V23.6101C47.9529 23.1858 47.8452 22.8544 47.6264 22.6158C47.411 22.3771 47.111 22.2578 46.7266 22.2578C46.4714 22.2578 46.246 22.3142 46.0504 22.4268C45.8582 22.5362 45.709 22.6937 45.603 22.8991C45.5002 23.1046 45.4472 23.3532 45.4439 23.6449ZM58.5527 22.6953L56.3205 22.755C56.2973 22.5959 56.2343 22.455 56.1316 22.3324C56.0288 22.2064 55.8946 22.1087 55.7289 22.0391C55.5665 21.9661 55.3775 21.9297 55.1621 21.9297C54.8804 21.9297 54.6401 21.986 54.4412 22.0987C54.2457 22.2114 54.1496 22.3639 54.1529 22.5561C54.1496 22.7053 54.2092 22.8345 54.3319 22.9439C54.4578 23.0533 54.6815 23.1411 55.003 23.2074L56.4746 23.4858C57.2369 23.6316 57.8037 23.8736 58.1749 24.2116C58.5494 24.5497 58.7383 24.9972 58.7417 25.554C58.7383 26.0777 58.5826 26.5334 58.2743 26.9212C57.9694 27.3089 57.5518 27.6106 57.0215 27.826C56.4912 28.0381 55.8846 28.1442 55.2019 28.1442C54.1114 28.1442 53.2514 27.9205 52.6216 27.473C51.9952 27.0223 51.6373 26.419 51.5478 25.6634L53.949 25.6037C54.0021 25.8821 54.1396 26.0942 54.3617 26.2401C54.5837 26.3859 54.8671 26.4588 55.2118 26.4588C55.5234 26.4588 55.7769 26.4008 55.9725 26.2848C56.168 26.1688 56.2675 26.0147 56.2708 25.8224C56.2675 25.6501 56.1912 25.5125 56.0421 25.4098C55.8929 25.3037 55.6593 25.2209 55.3411 25.1612L54.0087 24.9077C53.2431 24.7685 52.673 24.5116 52.2985 24.1371C51.9239 23.7592 51.7383 23.2786 51.7417 22.6953C51.7383 22.1849 51.8742 21.7491 52.1493 21.3878C52.4244 21.0232 52.8155 20.7448 53.3226 20.5526C53.8297 20.3603 54.428 20.2642 55.1174 20.2642C56.1515 20.2642 56.9668 20.4813 57.5634 20.9155C58.16 21.3464 58.4898 21.9396 58.5527 22.6953Z" fill="black"/>
</svg>
