<svg width="50" height="50" viewBox="0 0 51 19" fill="none" xmlns="http://www.w3.org/2000/svg">
<path d="M7.09695 18H0.645242V0.545454H7.08842C8.86683 0.545454 10.3981 0.894886 11.6822 1.59375C12.9719 2.28693 13.9663 3.28693 14.6651 4.59375C15.364 5.89489 15.7134 7.4517 15.7134 9.2642C15.7134 11.0824 15.364 12.6449 14.6651 13.9517C13.9719 15.2585 12.9805 16.2614 11.6907 16.9602C10.4009 17.6534 8.86967 18 7.09695 18ZM4.86399 14.4034H6.93501C7.91229 14.4034 8.73899 14.2386 9.41513 13.9091C10.0969 13.5739 10.6112 13.0312 10.9577 12.2812C11.31 11.5256 11.4862 10.5199 11.4862 9.2642C11.4862 8.00852 11.31 7.00852 10.9577 6.2642C10.6055 5.5142 10.0856 4.97443 9.39808 4.64489C8.71626 4.30966 7.87536 4.14204 6.87536 4.14204H4.86399V14.4034ZM27.6112 5.77841C27.5543 5.15341 27.3015 4.66761 26.8526 4.32102C26.4094 3.96875 25.7759 3.79261 24.9521 3.79261C24.4066 3.79261 23.9521 3.86364 23.5884 4.00568C23.2248 4.14773 22.9521 4.34375 22.7702 4.59375C22.5884 4.83807 22.4947 5.11932 22.489 5.4375C22.4776 5.69886 22.5288 5.92898 22.6424 6.12784C22.7617 6.3267 22.9322 6.50284 23.1538 6.65625C23.381 6.80398 23.6538 6.93466 23.9719 7.0483C24.2901 7.16193 24.6481 7.26136 25.0458 7.34659L26.5458 7.6875C27.4094 7.875 28.1708 8.125 28.8299 8.4375C29.4947 8.75 30.0515 9.12216 30.5004 9.55398C30.9549 9.9858 31.2987 10.483 31.5316 11.0455C31.7646 11.608 31.8839 12.2386 31.8896 12.9375C31.8839 14.0398 31.6055 14.9858 31.0543 15.7756C30.5032 16.5653 29.7106 17.1705 28.6765 17.5909C27.6481 18.0114 26.4066 18.2216 24.9521 18.2216C23.4918 18.2216 22.2191 18.0028 21.1339 17.5653C20.0487 17.1278 19.2049 16.4631 18.6026 15.571C18.0004 14.679 17.6907 13.5511 17.6737 12.1875H21.7134C21.7475 12.75 21.8981 13.2188 22.1651 13.5938C22.4322 13.9688 22.7987 14.2528 23.2646 14.446C23.7362 14.6392 24.2816 14.7358 24.9009 14.7358C25.4691 14.7358 25.9521 14.6591 26.3498 14.5057C26.7532 14.3523 27.0629 14.1392 27.2788 13.8665C27.4947 13.5937 27.6055 13.2812 27.6112 12.929C27.6055 12.5994 27.5032 12.3182 27.3043 12.0852C27.1055 11.8466 26.7987 11.642 26.3839 11.4716C25.9748 11.2955 25.4521 11.1335 24.8157 10.9858L22.9918 10.5597C21.4805 10.2131 20.2901 9.65341 19.4208 8.88068C18.5515 8.10227 18.1197 7.05114 18.1254 5.72727C18.1197 4.64773 18.4094 3.7017 18.9947 2.8892C19.5799 2.0767 20.3896 1.44318 21.4237 0.988636C22.4577 0.534091 23.6367 0.306818 24.9606 0.306818C26.3129 0.306818 27.4862 0.536931 28.4805 0.997158C29.4805 1.4517 30.256 2.09091 30.8072 2.91477C31.3583 3.73864 31.6396 4.69318 31.6509 5.77841H27.6112ZM37.2567 18H32.7227L38.6119 0.545454H44.2283L50.1175 18H45.5835L41.484 4.94318H41.3477L37.2567 18ZM36.6516 11.1307H46.1289V14.3352H36.6516V11.1307Z" fill="black"/>
</svg>
